<svg width="128" height="121" viewBox="0 0 128 121" fill="none" xmlns="http://www.w3.org/2000/svg">
<ellipse cx="59.5" cy="64.5" rx="59.5" ry="56.5" fill="url(#paint0_linear_22_10)"/>
<path fill-rule="evenodd" clip-rule="evenodd" d="M39 28.5C35.5 37 39.8333 53 41.5 64C42.6667 65.1667 46.6 68.1 53 70.5C59.4 72.9 75.3333 64.5 82.5 60H82.53C82.4293 59.5083 81.474 56.1169 75.5 37C65.5 5.00002 41.5 22.4286 39 28.5ZM46 49.5L53 40.5L62.5 49.5L53 55.5L46 49.5Z" fill="#F99219" fill-opacity="0.5"/>
<path d="M53 40.5L46 49.5L53 55.5L62.5 49.5L53 40.5Z" fill="#F7F7F7"/>
<path d="M82.5 70.9921C74.1356 76.9165 60.7863 84.5312 53 82.5C48.3742 81.2933 44.4815 80.036 41.5 78.9569C40 79.4713 36.7 81.6 35.5 86C34.3126 87.3938 34.0187 89.6898 34.332 92.5C34.7029 95.8273 35.9252 99.8753 37.524 104C38.7072 107.053 40.0967 110.147 41.5 113.023C45.8333 106.849 56.9 97.2 66.5 108C76.1 118.8 82.8132 112.5 84.9697 108C85.4802 105.836 85.9934 103.349 86.5 100.5C87.5127 94.8036 87.7509 89.9913 87.5188 86C87.0176 77.3794 84.3228 72.5888 82.5 70.9921Z" fill="#D9D9D9"/>
<path d="M46 118H79.5C80.6223 118.421 82.2559 119.508 84.9697 108C82.8132 112.5 76.1 118.8 66.5 108C56.9 97.2 45.8333 106.849 41.5 113.023C43.0731 116.247 41.5 118 46 118Z" fill="#F7F7F7"/>
<path d="M86.5 68C85.3731 68.8964 84.0187 69.9164 82.5 70.9921C84.3228 72.5888 87.0176 77.3794 87.5188 86L94.5 82.5V78.9569L90 68H86.5Z" fill="#D9D9D9" fill-opacity="0.5"/>
<path d="M41.5 78.9569C38.5517 77.8899 36.4944 76.9972 35.5 76.5H28V78.9569V92.5H34.332C34.0187 89.6898 34.3126 87.3938 35.5 86C36.7 81.6 40 79.4713 41.5 78.9569Z" fill="#D9D9D9" fill-opacity="0.5"/>
<path d="M86.5 60C79.1667 66.3333 62.2 78.5 53 76.5C43.8 74.5 36.332 69.1667 34.332 68L35.5 76.5C36.4944 76.9972 38.5517 77.8899 41.5 78.9569C44.4815 80.036 48.3742 81.2933 53 82.5C60.7863 84.5312 74.1356 76.9165 82.5 70.9921C84.0187 69.9164 85.3731 68.8964 86.5 68V60Z" fill="#D3C7C7"/>
<path d="M90 68L94.5 78.9569L105 74.8642L100 65.0774C96.5825 66.4542 93.0504 67.4205 90 68Z" fill="#A7AFBD"/>
<path d="M105 74.8642L108.5 73.5C111.31 72.63 113.756 71.6232 115.871 70.5L108.5 60.3564C106.047 62.2728 103.07 63.8407 100 65.0774L105 74.8642Z" fill="#A7AFBD"/>
<path d="M108.5 60.3564L115.871 70.5C121.095 67.7252 124.296 64.2405 125.952 60.3564L112.922 55.5C111.856 57.3159 110.323 58.9324 108.5 60.3564Z" fill="#A7AFBD"/>
<path d="M112.922 55.5L125.952 60.3564C127.982 55.5931 127.688 50.2292 125.952 44.8375L113.981 46C115.065 49.6276 114.515 52.7865 112.922 55.5Z" fill="#A7AFBD"/>
<path d="M108.5 37C111.422 40.2724 113.164 43.269 113.981 46L125.952 44.8375C124.547 40.4754 122.199 36.0951 119.374 32L108.5 37Z" fill="#A7AFBD"/>
<path d="M108.5 37L119.374 32C117.149 28.7736 114.628 25.7241 112.04 23L100.533 28.5C102.512 30.464 105.106 33.1984 108.5 37Z" fill="#A7AFBD"/>
<path d="M105 16.5L94.5 23C94.5 23.3337 94.4504 23.4928 94.4043 23.5627C94.7046 23.5471 96.0127 24.0126 100.533 28.5L112.04 23C109.691 20.5287 107.288 18.3251 105 16.5Z" fill="#A7AFBD"/>
<path d="M94.5 23L105 16.5L108.5 6L94.5 1L100.533 12L90 19.5L82.5 9.5V23H94.5Z" fill="#D9D9D9"/>
<path d="M28 92.5V78.9569C24.1426 81.2795 19.9022 84.3601 16.5 87.7507L23.8753 96C24.8782 94.6038 26.5118 93.3577 28 92.5Z" fill="#A7AFBD"/>
<path d="M23.8753 96L16.5 87.7507C11.2551 92.9777 8.00242 98.9415 11.217 104L23.8753 100.822C22.434 99.2435 22.7753 97.5314 23.8753 96Z" fill="#A7AFBD"/>
<path d="M30.5 104C27.0169 103.102 24.9503 101.999 23.8753 100.822L11.217 104C13.5752 107.711 19.414 110.935 30.5 113.023V104Z" fill="#A7AFBD"/>
<path d="M30.5 113.023H41.5C40.0967 110.147 38.7072 107.053 37.524 104H30.5V113.023Z" fill="#A7AFBD"/>
<path d="M41.5 64C39.8333 53 35.5 37 39 28.5C41.5 22.4286 65.5 5.00002 75.5 37C81.474 56.1169 82.4293 59.5083 82.53 60M41.5 64C42.6667 65.1667 46.6 68.1 53 70.5C59.4 72.9 75.3333 64.5 82.5 60M41.5 64L34.332 68M82.5 60H82.53M82.5 60C82.5 60 82.5641 60.1668 82.53 60M86.5 60C79.1667 66.3333 62.2 78.5 53 76.5C43.8 74.5 36.332 69.1667 34.332 68M86.5 60V68M86.5 60H82.53M34.332 68L35.5 76.5M86.5 68C85.3731 68.8964 84.0187 69.9164 82.5 70.9921M86.5 68H90M35.5 76.5C36.4944 76.9972 38.5517 77.8899 41.5 78.9569M35.5 76.5H28V78.9569M82.5 70.9921C74.1356 76.9165 60.7863 84.5312 53 82.5C48.3742 81.2933 44.4815 80.036 41.5 78.9569M82.5 70.9921C84.3228 72.5888 87.0176 77.3794 87.5188 86M41.5 78.9569C40 79.4713 36.7 81.6 35.5 86C34.3126 87.3938 34.0187 89.6898 34.332 92.5M41.5 113.023C43.0731 116.247 41.5 118 46 118H79.5C80.6223 118.421 82.2559 119.508 84.9697 108M41.5 113.023C45.8333 106.849 56.9 97.2 66.5 108C76.1 118.8 82.8132 112.5 84.9697 108M41.5 113.023H30.5M41.5 113.023C40.0967 110.147 38.7072 107.053 37.524 104M84.9697 108C85.4802 105.836 85.9934 103.349 86.5 100.5C87.5127 94.8036 87.7509 89.9913 87.5188 86M90 68L94.5 78.9569M90 68C93.0504 67.4205 96.5825 66.4542 100 65.0774M87.5188 86L94.5 82.5V78.9569M108.5 37C111.422 40.2724 113.164 43.269 113.981 46M108.5 37L119.374 32M108.5 37C105.106 33.1984 102.512 30.464 100.533 28.5M94.5 23L105 16.5M94.5 23H82.5V9.5L90 19.5L100.533 12L94.5 1L108.5 6L105 16.5M94.5 23C94.5 23.3337 94.4504 23.4928 94.4043 23.5627M94.5 23C94.5 23.8394 94.186 23.574 94.4043 23.5627M105 16.5C107.288 18.3251 109.691 20.5287 112.04 23M94.5 78.9569L105 74.8642M28 92.5H34.332M28 92.5V78.9569M28 92.5C26.5118 93.3577 24.8782 94.6038 23.8753 96M34.332 92.5C34.7029 95.8273 35.9252 99.8753 37.524 104M28 78.9569C24.1426 81.2795 19.9022 84.3601 16.5 87.7507M30.5 113.023C19.414 110.935 13.5752 107.711 11.217 104M30.5 113.023V104M30.5 104H37.524M30.5 104C27.0169 103.102 24.9503 101.999 23.8753 100.822M100 65.0774L105 74.8642M100 65.0774C103.07 63.8407 106.047 62.2728 108.5 60.3564M105 74.8642L108.5 73.5C111.31 72.63 113.756 71.6232 115.871 70.5M108.5 60.3564L115.871 70.5M108.5 60.3564C110.323 58.9324 111.856 57.3159 112.922 55.5M115.871 70.5C121.095 67.7252 124.296 64.2405 125.952 60.3564M112.922 55.5L125.952 60.3564M112.922 55.5C114.515 52.7865 115.065 49.6276 113.981 46M125.952 60.3564C127.982 55.5931 127.688 50.2292 125.952 44.8375M113.981 46L125.952 44.8375M125.952 44.8375C124.547 40.4754 122.199 36.0951 119.374 32M119.374 32C117.149 28.7736 114.628 25.7241 112.04 23M100.533 28.5L112.04 23M100.533 28.5C96.0127 24.0126 94.7046 23.5471 94.4043 23.5627M16.5 87.7507L23.8753 96M16.5 87.7507C11.2551 92.9777 8.00242 98.9415 11.217 104M23.8753 96C22.7753 97.5314 22.434 99.2435 23.8753 100.822M23.8753 100.822L11.217 104M66.5 104L71.5 108M53 40.5L46 49.5L53 55.5L62.5 49.5L53 40.5Z" stroke="#0D1D6F"/>
<rect x="51" y="46" width="5" height="5" fill="black"/>
<circle cx="74.5" cy="100.5" r="2.5" fill="#CD2637" fill-opacity="0.979167"/>
<defs>
<linearGradient id="paint0_linear_22_10" x1="59.5" y1="8" x2="59.5" y2="121" gradientUnits="userSpaceOnUse">
<stop stop-color="#CD2637" stop-opacity="0.979167"/>
<stop offset="0.380208" stop-color="#D3C7C7"/>
<stop offset="1" stop-color="#D98452" stop-opacity="0"/>
</linearGradient>
</defs>
</svg>
