<svg width="52" height="43" viewBox="0 0 52 43" fill="none" xmlns="http://www.w3.org/2000/svg">
<ellipse cx="24.5" cy="21.5" rx="24.5" ry="21.5" fill="black"/>
<g filter="url(#filter0_d_27_32)">
<path d="M14.5488 25.4316C14.2715 25.627 13.916 25.7812 13.4824 25.8945C13.0488 26.0039 12.5176 26.0586 11.8887 26.0586C11.2637 26.0586 10.6328 26.0215 9.99609 25.9473V24.8105C10.5664 24.9395 11.1406 25.0039 11.7188 25.0039C12.2969 25.0039 12.7305 24.9727 13.0195 24.9102C13.3086 24.8438 13.541 24.7578 13.7168 24.6523C14.041 24.457 14.2031 24.2031 14.2031 23.8906C14.2031 23.6484 14.1406 23.4609 14.0156 23.3281C13.8164 23.1211 13.5293 22.9316 13.1543 22.7598L11.6543 22.0742C11.1387 21.832 10.7734 21.6074 10.5586 21.4004C10.0977 20.9551 9.86719 20.4395 9.86719 19.8535C9.86719 19.252 10.1289 18.7656 10.6523 18.3945C11.2266 17.9883 12.043 17.7852 13.1016 17.7852C13.7852 17.7852 14.4102 17.8125 14.9766 17.8672V18.9863C14.4961 18.877 13.959 18.8223 13.3652 18.8223C12.7754 18.8223 12.3457 18.8535 12.0762 18.916C11.8105 18.9746 11.6016 19.0508 11.4492 19.1445C11.1719 19.3164 11.0332 19.543 11.0332 19.8242C11.0332 20.0977 11.1211 20.3242 11.2969 20.5039C11.4531 20.6562 11.7383 20.832 12.1523 21.0312L13.6934 21.7637C14.2051 22.0059 14.5625 22.2344 14.7656 22.4492C14.9727 22.6641 15.125 22.8809 15.2227 23.0996C15.3203 23.3145 15.3691 23.5742 15.3691 23.8789C15.3691 24.1797 15.3027 24.4648 15.1699 24.7344C15.0371 25 14.8301 25.2324 14.5488 25.4316ZM16.9102 17.8438H22.1777V18.8633H18.082V21.2656H21.1816V22.25H18.082V24.9688H22.1777V26H16.9102V17.8438ZM25.916 18.875H23.4609V17.8438H29.543V18.875H27.0879V26H25.916V18.875ZM30.9258 17.8438H36.1934V18.8633H32.0977V21.2656H35.1973V22.25H32.0977V24.9688H36.1934V26H30.9258V17.8438Z" fill="#D3C7C7"/>
</g>
<path d="M12.2143 40.3571C11.6811 40.2905 15.6019 35.6238 17.2937 35.2778C22.1457 34.2853 26.6458 35.303 31.5397 33.373C34.8329 32.0743 37.7871 30.0331 39.9127 27.1825C41.1871 25.4735 42.0216 23.4878 43.246 21.746C44.1503 20.4596 44.8767 19.1082 46.4206 18.6508C47.4839 18.3358 48.9654 18.5714 50.0714 18.5714" stroke="#F9F9F9" stroke-width="3" stroke-linecap="round"/>
<path d="M1.85715 11.0714C2.32175 12.6201 6.05984 14.1826 7.4127 14.8413C9.07493 15.6505 11.3802 15.5352 13.0873 14.9206C15.7911 13.9473 17.7111 12.4515 19.6349 10.3571C21.0016 8.86937 22.561 7.02287 24.7341 6.80556C29.875 6.29147 35.8595 8.04607 40.4286 5" stroke="#F9F9F9" stroke-width="3" stroke-linecap="round"/>
<defs>
<filter id="filter0_d_27_32" x="5.86719" y="17.7852" width="34.3262" height="16.2734" filterUnits="userSpaceOnUse" color-interpolation-filters="sRGB">
<feFlood flood-opacity="0" result="BackgroundImageFix"/>
<feColorMatrix in="SourceAlpha" type="matrix" values="0 0 0 0 0 0 0 0 0 0 0 0 0 0 0 0 0 0 127 0" result="hardAlpha"/>
<feOffset dy="4"/>
<feGaussianBlur stdDeviation="2"/>
<feComposite in2="hardAlpha" operator="out"/>
<feColorMatrix type="matrix" values="0 0 0 0 0 0 0 0 0 0 0 0 0 0 0 0 0 0 0.25 0"/>
<feBlend mode="normal" in2="BackgroundImageFix" result="effect1_dropShadow_27_32"/>
<feBlend mode="normal" in="SourceGraphic" in2="effect1_dropShadow_27_32" result="shape"/>
</filter>
</defs>
</svg>
