<svg width="28" height="10" viewBox="0 0 28 10" fill="none" xmlns="http://www.w3.org/2000/svg">
<path d="M5.54883 8.43164C5.27148 8.62695 4.91602 8.78125 4.48242 8.89453C4.04883 9.00391 3.51758 9.05859 2.88867 9.05859C2.26367 9.05859 1.63281 9.02148 0.996094 8.94727V7.81055C1.56641 7.93945 2.14062 8.00391 2.71875 8.00391C3.29688 8.00391 3.73047 7.97266 4.01953 7.91016C4.30859 7.84375 4.54102 7.75781 4.7168 7.65234C5.04102 7.45703 5.20312 7.20312 5.20312 6.89062C5.20312 6.64844 5.14062 6.46094 5.01562 6.32812C4.81641 6.12109 4.5293 5.93164 4.1543 5.75977L2.6543 5.07422C2.13867 4.83203 1.77344 4.60742 1.55859 4.40039C1.09766 3.95508 0.867188 3.43945 0.867188 2.85352C0.867188 2.25195 1.12891 1.76562 1.65234 1.39453C2.22656 0.988281 3.04297 0.785156 4.10156 0.785156C4.78516 0.785156 5.41016 0.8125 5.97656 0.867188V1.98633C5.49609 1.87695 4.95898 1.82227 4.36523 1.82227C3.77539 1.82227 3.3457 1.85352 3.07617 1.91602C2.81055 1.97461 2.60156 2.05078 2.44922 2.14453C2.17188 2.31641 2.0332 2.54297 2.0332 2.82422C2.0332 3.09766 2.12109 3.32422 2.29688 3.50391C2.45312 3.65625 2.73828 3.83203 3.15234 4.03125L4.69336 4.76367C5.20508 5.00586 5.5625 5.23438 5.76562 5.44922C5.97266 5.66406 6.125 5.88086 6.22266 6.09961C6.32031 6.31445 6.36914 6.57422 6.36914 6.87891C6.36914 7.17969 6.30273 7.46484 6.16992 7.73438C6.03711 8 5.83008 8.23242 5.54883 8.43164ZM7.91016 0.84375H13.1777V1.86328H9.08203V4.26562H12.1816V5.25H9.08203V7.96875H13.1777V9H7.91016V0.84375ZM16.916 1.875H14.4609V0.84375H20.543V1.875H18.0879V9H16.916V1.875ZM21.9258 0.84375H27.1934V1.86328H23.0977V4.26562H26.1973V5.25H23.0977V7.96875H27.1934V9H21.9258V0.84375Z" fill="#F99219"/>
</svg>
